<mxfile host="app.diagrams.net" modified="2024-04-08T08:15:44.689Z" agent="Mozilla/5.0 (Windows NT 10.0; Win64; x64) AppleWebKit/537.36 (KHTML, like Gecko) Chrome/123.0.0.0 Safari/537.36" version="24.2.2" etag="n8TW0lhtx3YUkMTUUwuh" type="github">
  <diagram name="Page-1" id="zxjZGQANCJnUxLigUrL5">
    <mxGraphModel>
      <root>
        <mxCell id="0" />
        <mxCell id="1" parent="0" />
      </root>
    </mxGraphModel>
  </diagram>
</mxfile>
